Saira-PARAMETRIC-JUN_ExtraExpanded.ufo
<glyph name="quotesingle" format="2">
  <advance width="176.04"/>
  <unicode hex="0027"/>
  <anchor x="0" y="0" name="#entry"/>
  <anchor x="184.48" y="0" name="#exit"/>
  <outline>
    <contour>
      <point x="59.52" y="444" type="line"/>
      <point x="115.52" y="444" type="line"/>
      <point x="127.52" y="612" type="line"/>
      <point x="127.52" y="688" type="line"/>
      <point x="48.52" y="688" type="line"/>
      <point x="48.52" y="612" type="line"/>
    </contour>
  </outline>
</glyph>
<glyph name="comma" format="2">
  <advance width="234.8"/>
  <unicode hex="002C"/>
  <outline>
    <contour>
      <point x="48.52" y="-121.2" type="line"/>
      <point x="152.88" y="-121.2"/>
      <point x="174.8" y="-101"/>
      <point x="174.8" y="0" type="curve" smooth="yes"/>
      <point x="174.8" y="111.8" type="line"/>
      <point x="60" y="111.8" type="line"/>
      <point x="60" y="0" type="line"/>
      <point x="109.04" y="0" type="line"/>
      <point x="109.04" y="-26.9" type="line" smooth="yes"/>
      <point x="109.04" y="-66.74"/>
      <point x="98.6" y="-74.7"/>
      <point x="48.52" y="-74.7" type="curve"/>
    </contour>
  </outline>
</glyph>
<glyph name="A" format="2">
  <advance width="794.64"/>
  <unicode hex="0041"/>
  <anchor x="397.32" y="0" name="bottom"/>
  <anchor x="714.8" y="10" name="ogonek"/>
  <anchor x="397.32" y="688" name="top"/>
  <outline>
    <contour>
      <point x="9.88" y="0" type="line"/>
      <point x="103.92" y="0" type="line"/>
      <point x="393.84" y="621" type="line"/>
      <point x="397.84" y="621" type="line"/>
      <point x="687.74" y="0" type="line"/>
      <point x="784.76" y="0" type="line"/>
      <point x="460.18" y="688" type="line"/>
      <point x="334.48" y="688" type="line"/>
    </contour>
    <contour>
      <point x="146.48" y="187.74" type="line"/>
      <point x="642.06" y="187.74" type="line"/>
      <point x="610.26" y="264.26" type="line"/>
      <point x="178.28" y="264.26" type="line"/>
    </contour>
  </outline>
</glyph>
<glyph name="B" format="2">
  <advance width="869"/>
  <unicode hex="0042"/>
  <anchor x="345.883" y="0" name="bottom"/>
  <anchor x="345.883" y="688" name="top"/>
  <outline>
    <contour>
      <point x="98.68" y="0" type="line"/>
      <point x="490.6" y="0" type="line" smooth="yes"/>
      <point x="722.24" y="0"/>
      <point x="784.52" y="39.96"/>
      <point x="784.52" y="189.8" type="curve" smooth="yes"/>
      <point x="784.52" y="196.8" type="line" smooth="yes"/>
      <point x="784.52" y="334.96"/>
      <point x="721.24" y="375"/>
      <point x="490.6" y="375" type="curve" smooth="yes"/>
      <point x="169.44" y="375" type="line"/>
      <point x="169.44" y="313.9" type="line"/>
      <point x="491.6" y="313.9" type="line" smooth="yes"/>
      <point x="663.76" y="313.9"/>
      <point x="696.6" y="298.12"/>
      <point x="696.6" y="211.28" type="curve" smooth="yes"/>
      <point x="696.6" y="176.76" type="line" smooth="yes"/>
      <point x="696.6" y="90.92"/>
      <point x="663.76" y="76.12"/>
      <point x="491.6" y="76.12" type="curve" smooth="yes"/>
      <point x="146.92" y="76.12" type="line"/>
      <point x="186.6" y="43" type="line"/>
      <point x="186.6" y="645" type="line"/>
      <point x="146.92" y="611.88" type="line"/>
      <point x="477.6" y="611.88" type="line" smooth="yes"/>
      <point x="649.76" y="611.88"/>
      <point x="682.6" y="598.08"/>
      <point x="682.6" y="517.22" type="curve" smooth="yes"/>
      <point x="682.6" y="482.72" type="line" smooth="yes"/>
      <point x="682.6" y="400.88"/>
      <point x="649.76" y="386.1"/>
      <point x="477.6" y="386.1" type="curve" smooth="yes"/>
      <point x="169.44" y="386.1" type="line"/>
      <point x="169.44" y="325" type="line"/>
      <point x="476.6" y="325" type="line" smooth="yes"/>
      <point x="707.24" y="325"/>
      <point x="770.52" y="364.04"/>
      <point x="770.52" y="497.2" type="curve" smooth="yes"/>
      <point x="770.52" y="504.2" type="line" smooth="yes"/>
      <point x="770.52" y="649.04"/>
      <point x="708.24" y="688"/>
      <point x="476.6" y="688" type="curve" smooth="yes"/>
      <point x="98.68" y="688" type="line"/>
    </contour>
  </outline>
</glyph>
<glyph name="C" format="2">
  <advance width="805"/>
  <unicode hex="0043"/>
  <anchor x="384.54" y="0" name="bottom"/>
  <anchor x="384.54" y="688" name="top"/>
  <outline>
    <contour>
      <point x="455.98" y="-8" type="curve" smooth="yes"/>
      <point x="542.34" y="-8"/>
      <point x="643.82" y="-1"/>
      <point x="711.06" y="10" type="curve"/>
      <point x="711.06" y="83.12" type="line"/>
      <point x="655.82" y="73.12"/>
      <point x="566.4" y="68.12"/>
      <point x="455.98" y="68.12" type="curve" smooth="yes"/>
      <point x="184.96" y="68.12"/>
      <point x="162.9" y="86.12"/>
      <point x="162.9" y="310" type="curve" smooth="yes"/>
      <point x="162.9" y="378" type="line" smooth="yes"/>
      <point x="162.9" y="598.88"/>
      <point x="188.96" y="619.88"/>
      <point x="455.98" y="619.88" type="curve" smooth="yes"/>
      <point x="559.4" y="619.88"/>
      <point x="646.76" y="614.88"/>
      <point x="706.06" y="604.88" type="curve"/>
      <point x="706.06" y="676" type="line"/>
      <point x="639.82" y="688"/>
      <point x="537.34" y="696"/>
      <point x="455.98" y="696" type="curve" smooth="yes"/>
      <point x="135.08" y="696"/>
      <point x="74.98" y="643"/>
      <point x="74.98" y="349" type="curve" smooth="yes"/>
      <point x="74.98" y="339" type="line" smooth="yes"/>
      <point x="74.98" y="43"/>
      <point x="130.08" y="-8"/>
    </contour>
  </outline>
</glyph>
<glyph name="D" format="2">
  <advance width="846"/>
  <unicode hex="0044"/>
  <anchor x="424.78" y="0" name="bottom"/>
  <anchor x="220.42" y="344" name="center"/>
  <anchor x="424.78" y="688" name="top"/>
  <outline>
    <contour>
      <point x="98.68" y="0" type="line"/>
      <point x="386.6" y="0" type="line" smooth="yes"/>
      <point x="714.64" y="0"/>
      <point x="770.52" y="49"/>
      <point x="770.52" y="339" type="curve" smooth="yes"/>
      <point x="770.52" y="349" type="line" smooth="yes"/>
      <point x="770.52" y="639"/>
      <point x="714.64" y="688"/>
      <point x="386.6" y="688" type="curve" smooth="yes"/>
      <point x="98.68" y="688" type="line"/>
    </contour>
    <contour>
      <point x="186.6" y="39.5" type="line"/>
      <point x="186.6" y="648.48" type="line"/>
      <point x="145.92" y="611.88" type="line"/>
      <point x="384.6" y="611.88" type="line" smooth="yes"/>
      <point x="655.56" y="611.88"/>
      <point x="682.6" y="590.04"/>
      <point x="682.6" y="377" type="curve" smooth="yes"/>
      <point x="682.6" y="311" type="line" smooth="yes"/>
      <point x="682.6" y="97.96"/>
      <point x="655.56" y="76.12"/>
      <point x="384.6" y="76.12" type="curve" smooth="yes"/>
      <point x="145.92" y="76.12" type="line"/>
    </contour>
  </outline>
</glyph>
<glyph name="E" format="2">
  <advance width="769.1"/>
  <unicode hex="0045"/>
  <anchor x="387.26" y="0" name="bottom"/>
  <anchor x="684.98" y="10" name="ogonek"/>
  <anchor x="387.26" y="688" name="top"/>
  <anchor x="33.92" y="688" name="topleft"/>
  <outline>
    <contour>
      <point x="148" y="386.06" type="line"/>
      <point x="148" y="309.94" type="line"/>
      <point x="672.76" y="309.94" type="line"/>
      <point x="672.76" y="386.06" type="line"/>
    </contour>
    <contour>
      <point x="186.6" y="38.26" type="line"/>
      <point x="186.6" y="649.74" type="line"/>
      <point x="148" y="609.88" type="line"/>
      <point x="719.76" y="609.88" type="line"/>
      <point x="719.76" y="688" type="line"/>
      <point x="98.68" y="688" type="line"/>
      <point x="98.68" y="0" type="line"/>
      <point x="719.76" y="0" type="line"/>
      <point x="719.76" y="78.12" type="line"/>
      <point x="148" y="78.12" type="line"/>
    </contour>
  </outline>
</glyph>
<glyph name="F" format="2">
  <advance width="744"/>
  <unicode hex="0046"/>
  <anchor x="382.44" y="0" name="bottom"/>
  <anchor x="382.44" y="688" name="top"/>
  <outline>
    <contour>
      <point x="149.6" y="375.46" type="line"/>
      <point x="149.6" y="299.34" type="line"/>
      <point x="656.76" y="299.34" type="line"/>
      <point x="656.76" y="375.46" type="line"/>
    </contour>
    <contour>
      <point x="186.6" y="0" type="line"/>
      <point x="186.6" y="649.74" type="line"/>
      <point x="149.6" y="609.88" type="line"/>
      <point x="703.76" y="609.88" type="line"/>
      <point x="703.76" y="688" type="line"/>
      <point x="98.68" y="688" type="line"/>
      <point x="98.68" y="0" type="line"/>
    </contour>
  </outline>
</glyph>
<glyph name="G" format="2">
  <advance width="863"/>
  <unicode hex="0047"/>
  <anchor x="429.56" y="0" name="bottom"/>
  <anchor x="429.56" y="688" name="top"/>
  <outline>
    <contour>
      <point x="455.06" y="-8" type="curve" smooth="yes"/>
      <point x="563.06" y="-8"/>
      <point x="687.26" y="-0.96"/>
      <point x="768.5" y="10.12" type="curve"/>
      <point x="768.5" y="371.3" type="line"/>
      <point x="395.9" y="371.3" type="line"/>
      <point x="395.9" y="299.1" type="line"/>
      <point x="682.9" y="299.1" type="line"/>
      <point x="682.9" y="77.06" type="line"/>
      <point x="633.9" y="71.1"/>
      <point x="554.9" y="68.12"/>
      <point x="454.9" y="68.12" type="curve" smooth="yes"/>
      <point x="184.9" y="68.12"/>
      <point x="162.9" y="86"/>
      <point x="162.9" y="310" type="curve" smooth="yes"/>
      <point x="162.9" y="378" type="line" smooth="yes"/>
      <point x="162.9" y="599.04"/>
      <point x="188.94" y="619.88"/>
      <point x="455.26" y="619.88" type="curve" smooth="yes"/>
      <point x="584.54" y="619.88"/>
      <point x="691.28" y="614.96"/>
      <point x="765.38" y="604.98" type="curve"/>
      <point x="765.38" y="676.08" type="line"/>
      <point x="684.02" y="688.04"/>
      <point x="555.82" y="696"/>
      <point x="454.96" y="696" type="curve" smooth="yes"/>
      <point x="133.88" y="696"/>
      <point x="74.98" y="642"/>
      <point x="74.98" y="349" type="curve" smooth="yes"/>
      <point x="74.98" y="339" type="line" smooth="yes"/>
      <point x="74.98" y="43"/>
      <point x="129.9" y="-8"/>
    </contour>
  </outline>
</glyph>
<glyph name="H" format="2">
  <advance width="884"/>
  <unicode hex="0048"/>
  <anchor x="441.6" y="0" name="bottom"/>
  <anchor x="441.6" y="550" name="center"/>
  <anchor x="441.6" y="688" name="top"/>
  <anchor x="36" y="688" name="topleft"/>
  <outline>
    <contour>
      <point x="98.68" y="0" type="line"/>
      <point x="186.6" y="0" type="line"/>
      <point x="186.6" y="347" type="line"/>
      <point x="146.68" y="308.94" type="line"/>
      <point x="736.52" y="308.94" type="line"/>
      <point x="696.6" y="347" type="line"/>
      <point x="696.6" y="0" type="line"/>
      <point x="784.52" y="0" type="line"/>
      <point x="784.52" y="688" type="line"/>
      <point x="696.6" y="688" type="line"/>
      <point x="696.6" y="347" type="line"/>
      <point x="736.52" y="385.06" type="line"/>
      <point x="146.68" y="385.06" type="line"/>
      <point x="186.6" y="347" type="line"/>
      <point x="186.6" y="688" type="line"/>
      <point x="98.68" y="688" type="line"/>
    </contour>
  </outline>
</glyph>
<glyph name="I" format="2">
  <advance width="286"/>
  <unicode hex="0049"/>
  <anchor x="142.64" y="0" name="bottom"/>
  <anchor x="243.92" y="10" name="ogonek"/>
  <anchor x="142.64" y="688" name="top"/>
  <anchor x="36" y="688" name="topleft"/>
  <outline>
    <contour>
      <point x="98.68" y="0" type="line"/>
      <point x="186.6" y="0" type="line"/>
      <point x="186.6" y="688" type="line"/>
      <point x="98.68" y="688" type="line"/>
    </contour>
  </outline>
</glyph>
<glyph name="J" format="2">
  <advance width="364.98"/>
  <unicode hex="004A"/>
  <anchor x="182.96" y="0" name="bottom"/>
  <anchor x="182.96" y="688" name="top"/>
  <outline>
    <contour>
      <point x="266.3" y="688" type="line"/>
      <point x="178.38" y="688" type="line"/>
      <point x="178.38" y="143.6" type="line" smooth="yes"/>
      <point x="178.38" y="80.26"/>
      <point x="149.22" y="68.2"/>
      <point x="4.94" y="68.2" type="curve"/>
      <point x="4.94" y="-4" type="line"/>
      <point x="209.7" y="-4"/>
      <point x="266.3" y="29.56"/>
      <point x="266.3" y="150.6" type="curve" smooth="yes"/>
    </contour>
  </outline>
</glyph>
<glyph name="K" format="2">
  <advance width="803.28"/>
  <unicode hex="004B"/>
  <anchor x="350.877" y="0" name="bottom"/>
  <anchor x="350.877" y="688" name="top"/>
  <outline>
    <contour>
      <point x="182" y="312" type="line"/>
      <point x="394.96" y="311.94" type="line"/>
      <point x="684.24" y="0" type="line"/>
      <point x="793.4" y="0" type="line"/>
      <point x="468.5" y="350" type="line"/>
      <point x="780.4" y="688" type="line"/>
      <point x="675.7" y="688" type="line"/>
      <point x="398.46" y="388.06" type="line"/>
      <point x="182" y="388" type="line"/>
    </contour>
    <contour>
      <point x="98.68" y="0" type="line"/>
      <point x="186.6" y="0" type="line"/>
      <point x="186.6" y="688" type="line"/>
      <point x="98.68" y="688" type="line"/>
    </contour>
  </outline>
</glyph>
<glyph name="L" format="2">
  <advance width="710"/>
  <unicode hex="004C"/>
  <anchor x="360.48" y="0" name="bottom"/>
  <anchor x="360.48" y="344" name="center"/>
  <anchor x="360.48" y="688" name="top"/>
  <anchor x="685.02" y="688" name="topright"/>
  <outline>
    <contour>
      <point x="98.68" y="0" type="line"/>
      <point x="689.72" y="0" type="line"/>
      <point x="689.72" y="76.12" type="line"/>
      <point x="148" y="76.12" type="line"/>
      <point x="186.6" y="36.26" type="line"/>
      <point x="186.6" y="688" type="line"/>
      <point x="98.68" y="688" type="line"/>
    </contour>
  </outline>
</glyph>
<glyph name="M" format="2">
  <advance width="891"/>
  <unicode hex="004D"/>
  <outline>
    <contour>
      <point x="98.68" y="0" type="line"/>
      <point x="187" y="0" type="line"/>
      <point x="187" y="573" type="line"/>
      <point x="389.62" y="0" type="line"/>
      <point x="497.68" y="0" type="line"/>
      <point x="701" y="573" type="line"/>
      <point x="701" y="0" type="line"/>
      <point x="791.56" y="0" type="line"/>
      <point x="791.56" y="688" type="line"/>
      <point x="659.06" y="688" type="line"/>
      <point x="445.14" y="82.62" type="line"/>
      <point x="231.18" y="688" type="line"/>
      <point x="98.68" y="688" type="line"/>
    </contour>
  </outline>
</glyph>
<glyph name="N" format="2">
  <advance width="862"/>
  <unicode hex="004E"/>
  <anchor x="422.32" y="0" name="bottom"/>
  <anchor x="422.32" y="688" name="top"/>
  <outline>
    <contour>
      <point x="98.68" y="0" type="line"/>
      <point x="187" y="0" type="line"/>
      <point x="187" y="561" type="line"/>
      <point x="672.7" y="0" type="line"/>
      <point x="762.6" y="0" type="line"/>
      <point x="762.6" y="688" type="line"/>
      <point x="675" y="688" type="line"/>
      <point x="675" y="127" type="line"/>
      <point x="188.58" y="688" type="line"/>
      <point x="98.68" y="688" type="line"/>
    </contour>
  </outline>
</glyph>
<glyph name="O" format="2">
  <advance width="897.8"/>
  <unicode hex="004F"/>
  <anchor x="448.9" y="-2" name="bottom"/>
  <anchor x="448.9" y="344" name="center"/>
  <anchor x="798.88" y="10" name="ogonek"/>
  <anchor x="448.9" y="688" name="top"/>
  <anchor x="31.94" y="688" name="topleft"/>
  <anchor x="865.86" y="688" name="topright"/>
  <outline>
    <contour>
      <point x="448.9" y="-8" type="curve" smooth="yes"/>
      <point x="766.1" y="-8"/>
      <point x="822.82" y="44.68"/>
      <point x="822.82" y="339" type="curve" smooth="yes"/>
      <point x="822.82" y="349" type="line" smooth="yes"/>
      <point x="822.82" y="643.32"/>
      <point x="766.1" y="696"/>
      <point x="448.9" y="696" type="curve" smooth="yes"/>
      <point x="131.7" y="696"/>
      <point x="74.98" y="643.32"/>
      <point x="74.98" y="349" type="curve" smooth="yes"/>
      <point x="74.98" y="339" type="line" smooth="yes"/>
      <point x="74.98" y="44.68"/>
      <point x="131.7" y="-8"/>
    </contour>
    <contour>
      <point x="448.9" y="68.12" type="curve" smooth="yes"/>
      <point x="190.9" y="68.12"/>
      <point x="162.9" y="91.02"/>
      <point x="162.9" y="310.3" type="curve" smooth="yes"/>
      <point x="162.9" y="377.7" type="line" smooth="yes"/>
      <point x="162.9" y="596.98"/>
      <point x="190.9" y="619.88"/>
      <point x="448.9" y="619.88" type="curve" smooth="yes"/>
      <point x="706.9" y="619.88"/>
      <point x="734.9" y="596.98"/>
      <point x="734.9" y="377.7" type="curve" smooth="yes"/>
      <point x="734.9" y="310.3" type="line" smooth="yes"/>
      <point x="734.9" y="91.02"/>
      <point x="706.9" y="68.12"/>
    </contour>
  </outline>
</glyph>
<glyph name="P" format="2">
  <advance width="782"/>
  <unicode hex="0050"/>
  <anchor x="396.02" y="0" name="bottom"/>
  <anchor x="396.02" y="688" name="top"/>
  <outline>
    <contour>
      <point x="98.68" y="0" type="line"/>
      <point x="186.6" y="0" type="line"/>
      <point x="186.6" y="642.92" type="line"/>
      <point x="147.12" y="611.88" type="line"/>
      <point x="464" y="611.88" type="line" smooth="yes"/>
      <point x="647.58" y="611.88"/>
      <point x="663.6" y="600.98"/>
      <point x="663.6" y="484.14" type="curve" smooth="yes"/>
      <point x="663.6" y="449.6" type="line" smooth="yes"/>
      <point x="663.6" y="332.76"/>
      <point x="647.58" y="321.86"/>
      <point x="464" y="321.86" type="curve" smooth="yes"/>
      <point x="174.52" y="321.86" type="line"/>
      <point x="174.52" y="245.74" type="line"/>
      <point x="442.6" y="245.74" type="line" smooth="yes"/>
      <point x="700.26" y="245.74"/>
      <point x="751.52" y="279.18"/>
      <point x="751.52" y="463.38" type="curve" smooth="yes"/>
      <point x="751.52" y="470.36" type="line" smooth="yes"/>
      <point x="751.52" y="654.56"/>
      <point x="700.26" y="688"/>
      <point x="442.6" y="688" type="curve" smooth="yes"/>
      <point x="98.68" y="688" type="line"/>
    </contour>
  </outline>
</glyph>
<glyph name="R" format="2">
  <advance width="835.68"/>
  <unicode hex="0052"/>
  <anchor x="420.84" y="0" name="bottom"/>
  <anchor x="420.84" y="688" name="top"/>
  <outline>
    <contour>
      <point x="98.68" y="0" type="line"/>
      <point x="186.6" y="0" type="line"/>
      <point x="186.6" y="642.92" type="line"/>
      <point x="147.12" y="611.88" type="line"/>
      <point x="474" y="611.88" type="line" smooth="yes"/>
      <point x="657.28" y="611.88"/>
      <point x="673.6" y="601.72"/>
      <point x="673.6" y="494.1" type="curve" smooth="yes"/>
      <point x="673.6" y="459.44" type="line" smooth="yes"/>
      <point x="673.6" y="351.78"/>
      <point x="657.28" y="341.66"/>
      <point x="474" y="341.66" type="curve" smooth="yes"/>
      <point x="174.52" y="341.66" type="line"/>
      <point x="174.52" y="265.54" type="line"/>
      <point x="452.6" y="265.54" type="line" smooth="yes"/>
      <point x="710.32" y="265.54"/>
      <point x="761.52" y="296.04"/>
      <point x="761.52" y="463.28" type="curve" smooth="yes"/>
      <point x="761.52" y="470.26" type="line" smooth="yes"/>
      <point x="761.52" y="654.54"/>
      <point x="710.32" y="688"/>
      <point x="452.6" y="688" type="curve" smooth="yes"/>
      <point x="98.68" y="688" type="line"/>
    </contour>
    <contour>
      <point x="674.28" y="0" type="line"/>
      <point x="771.52" y="0" type="line"/>
      <point x="625.56" y="293.8" type="line"/>
      <point x="531.6" y="293.2" type="line"/>
    </contour>
  </outline>
</glyph>
<glyph name="S" format="2">
  <advance width="783.92"/>
  <unicode hex="0053"/>
  <anchor x="391.96" y="0" name="bottom"/>
  <anchor x="391.96" y="688" name="top"/>
  <outline>
    <contour>
      <point x="394.16" y="-8" type="curve" smooth="yes"/>
      <point x="639.8" y="-8"/>
      <point x="713.88" y="38.72"/>
      <point x="713.88" y="193.4" type="curve" smooth="yes"/>
      <point x="713.88" y="314.94"/>
      <point x="677.16" y="358.86"/>
      <point x="561.72" y="371.44" type="curve" smooth="yes"/>
      <point x="240.76" y="401.36" type="line" smooth="yes"/>
      <point x="172.26" y="410.26"/>
      <point x="157.96" y="426.46"/>
      <point x="157.96" y="498.98" type="curve" smooth="yes"/>
      <point x="157.96" y="599.24"/>
      <point x="196.28" y="619.88"/>
      <point x="385.76" y="619.88" type="curve" smooth="yes"/>
      <point x="478.04" y="619.88"/>
      <point x="596.92" y="612.88"/>
      <point x="685.96" y="602.88" type="curve"/>
      <point x="685.96" y="677" type="line"/>
      <point x="579.32" y="689"/>
      <point x="463.44" y="696"/>
      <point x="389.76" y="696" type="curve" smooth="yes"/>
      <point x="145.02" y="696"/>
      <point x="70.04" y="650.26"/>
      <point x="70.04" y="500.6" type="curve" smooth="yes"/>
      <point x="70.04" y="380.74"/>
      <point x="109.58" y="333.8"/>
      <point x="220.2" y="322.16" type="curve" smooth="yes"/>
      <point x="541.16" y="292.24" type="line" smooth="yes"/>
      <point x="616.56" y="281.4"/>
      <point x="625.96" y="270.16"/>
      <point x="625.96" y="193.14" type="curve" smooth="yes"/>
      <point x="625.96" y="89.76"/>
      <point x="586.7" y="68.12"/>
      <point x="396" y="68.12" type="curve" smooth="yes"/>
      <point x="297.8" y="68.12"/>
      <point x="171" y="75.12"/>
      <point x="76.04" y="85.12" type="curve"/>
      <point x="76.04" y="11" type="line"/>
      <point x="192.6" y="-1"/>
      <point x="316.44" y="-8"/>
    </contour>
  </outline>
</glyph>
<glyph name="T" format="2">
  <advance width="637.84"/>
  <unicode hex="0054"/>
  <anchor x="318.92" y="0" name="bottom"/>
  <anchor x="318.92" y="344" name="center"/>
  <anchor x="318.92" y="688" name="top"/>
  <outline>
    <contour>
      <point x="274.96" y="0" type="line"/>
      <point x="362.88" y="0" type="line"/>
      <point x="362.88" y="647.72" type="line"/>
      <point x="325.32" y="609.92" type="line"/>
      <point x="627.96" y="609.92" type="line"/>
      <point x="627.96" y="688" type="line"/>
      <point x="9.88" y="688" type="line"/>
      <point x="9.88" y="609.92" type="line"/>
      <point x="312.52" y="609.92" type="line"/>
      <point x="274.96" y="647.72" type="line"/>
    </contour>
  </outline>
</glyph>
<glyph name="U" format="2">
  <advance width="881"/>
  <unicode hex="0055"/>
  <anchor x="440.18" y="0" name="bottom"/>
  <anchor x="780.7" y="10" name="ogonek"/>
  <anchor x="440.18" y="688" name="top"/>
  <anchor x="845.36" y="688" name="topright"/>
  <outline>
    <contour>
      <point x="440.18" y="-8" type="curve" smooth="yes"/>
      <point x="731.5" y="-8"/>
      <point x="786.62" y="44.42"/>
      <point x="786.62" y="327.54" type="curve" smooth="yes"/>
      <point x="786.62" y="688" type="line"/>
      <point x="701.66" y="688" type="line"/>
      <point x="701.66" y="297.52" type="line" smooth="yes"/>
      <point x="701.66" y="91.82"/>
      <point x="675.6" y="70.08"/>
      <point x="441.66" y="70.08" type="curve" smooth="yes"/>
      <point x="207.6" y="70.08"/>
      <point x="181.66" y="91.88"/>
      <point x="181.66" y="299.12" type="curve" smooth="yes"/>
      <point x="181.66" y="688" type="line"/>
      <point x="93.74" y="688" type="line"/>
      <point x="93.74" y="330.2" type="line" smooth="yes"/>
      <point x="93.74" y="44.56"/>
      <point x="148.64" y="-8"/>
    </contour>
  </outline>
</glyph>
<glyph name="V" format="2">
  <advance width="752.64"/>
  <unicode hex="0056"/>
  <outline>
    <contour>
      <point x="316.24" y="0" type="line"/>
      <point x="436.6" y="0" type="line"/>
      <point x="742.76" y="688" type="line"/>
      <point x="651.78" y="688" type="line"/>
      <point x="377.78" y="73.52" type="line"/>
      <point x="103.78" y="688" type="line"/>
      <point x="9.88" y="688" type="line"/>
    </contour>
  </outline>
</glyph>
<glyph name="W" format="2">
  <advance width="912.16"/>
  <unicode hex="0057"/>
  <outline>
    <contour>
      <point x="187" y="0" type="line"/>
      <point x="298" y="0" type="line"/>
      <point x="456" y="587" type="line"/>
      <point x="614" y="0" type="line"/>
      <point x="725" y="0" type="line"/>
      <point x="902" y="688" type="line"/>
      <point x="815" y="688" type="line"/>
      <point x="667" y="114" type="line"/>
      <point x="513" y="688" type="line"/>
      <point x="399" y="688" type="line"/>
      <point x="245" y="114" type="line"/>
      <point x="97" y="688" type="line"/>
      <point x="10" y="688" type="line"/>
    </contour>
  </outline>
</glyph>
<glyph name="X" format="2">
  <advance width="789.7"/>
  <unicode hex="0058"/>
  <anchor x="591.56" y="0" name="bottom"/>
  <anchor x="591.56" y="510" name="top"/>
  <outline>
    <contour>
      <point x="651.3" y="0" type="line"/>
      <point x="769.94" y="0" type="line"/>
      <point x="153.4" y="688" type="line"/>
      <point x="34.76" y="688" type="line"/>
    </contour>
    <contour>
      <point x="19.76" y="0" type="line"/>
      <point x="135.32" y="0" type="line"/>
      <point x="754.94" y="688" type="line"/>
      <point x="639.34" y="688" type="line"/>
    </contour>
  </outline>
</glyph>
<glyph name="Y" format="2">
  <advance width="740.64"/>
  <unicode hex="0059"/>
  <anchor x="384.36" y="0" name="bottom"/>
  <anchor x="384.36" y="688" name="top"/>
  <anchor x="22.36" y="688" name="topleft"/>
  <outline>
    <contour>
      <point x="326.36" y="0" type="line"/>
      <point x="414.28" y="0" type="line"/>
      <point x="414.28" y="289" type="line"/>
      <point x="406.16" y="255" type="line"/>
      <point x="730.76" y="688" type="line"/>
      <point x="626.4" y="688" type="line"/>
      <point x="371.62" y="348.18" type="line"/>
      <point x="116.9" y="688" type="line"/>
      <point x="9.88" y="688" type="line"/>
      <point x="334.48" y="255" type="line"/>
      <point x="326.36" y="289" type="line"/>
    </contour>
  </outline>
</glyph>
<glyph name="Z" format="2">
  <advance width="722.16"/>
  <unicode hex="005A"/>
  <anchor x="349.32" y="0" name="bottom"/>
  <anchor x="349.32" y="344" name="center"/>
  <anchor x="349.32" y="688" name="top"/>
  <outline>
    <contour>
      <point x="49.34" y="0" type="line"/>
      <point x="672.82" y="0" type="line"/>
      <point x="672.82" y="78.24" type="line"/>
      <point x="167.4" y="78.24" type="line"/>
      <point x="664.88" y="618.2" type="line"/>
      <point x="664.88" y="688" type="line"/>
      <point x="63.28" y="688" type="line"/>
      <point x="63.28" y="609.76" type="line"/>
      <point x="546.72" y="609.76" type="line"/>
      <point x="49.34" y="69.8" type="line"/>
    </contour>
  </outline>
</glyph>
<glyph name="a" format="2">
  <advance width="746"/>
  <unicode hex="0061"/>
  <anchor x="518.14" y="0" name="bottom"/>
  <anchor x="752.14" y="10" name="ogonek"/>
  <anchor x="518.14" y="510" name="top"/>
  <outline>
    <contour>
      <point x="306.14" y="-8" type="curve" smooth="yes"/>
      <point x="445.54" y="-8"/>
      <point x="523.3" y="19.08"/>
      <point x="559.7" y="78.2" type="curve"/>
      <point x="563.7" y="78.2" type="line"/>
      <point x="575.74" y="0" type="line"/>
      <point x="651.66" y="0" type="line"/>
      <point x="651.66" y="259" type="line" smooth="yes"/>
      <point x="651.66" y="483.8"/>
      <point x="611.32" y="518"/>
      <point x="348.8" y="518" type="curve" smooth="yes"/>
      <point x="267.54" y="518"/>
      <point x="184.5" y="513"/>
      <point x="88.22" y="503" type="curve"/>
      <point x="88.22" y="433.2" type="line"/>
      <point x="173.36" y="442.2"/>
      <point x="260.46" y="446.2"/>
      <point x="366.8" y="446.2" type="curve" smooth="yes"/>
      <point x="550.64" y="446.2"/>
      <point x="563.74" y="434.32"/>
      <point x="563.74" y="278.9" type="curve" smooth="yes"/>
      <point x="563.74" y="241.62" type="line" smooth="yes"/>
      <point x="563.7" y="102.7"/>
      <point x="513.78" y="63.8"/>
      <point x="331.1" y="63.8" type="curve" smooth="yes"/>
      <point x="176.1" y="63.8"/>
      <point x="150.14" y="76.58"/>
      <point x="150.14" y="149.3" type="curve" smooth="yes"/>
      <point x="150.14" y="217.08"/>
      <point x="183.98" y="233.8"/>
      <point x="326.3" y="233.8" type="curve" smooth="yes"/>
      <point x="584.3" y="233.8" type="line"/>
      <point x="584.3" y="306.2" type="line"/>
      <point x="312.84" y="306.2" type="line" smooth="yes"/>
      <point x="120.46" y="306.2"/>
      <point x="62.22" y="269.14"/>
      <point x="62.22" y="143.98" type="curve" smooth="yes"/>
      <point x="62.22" y="24.28"/>
      <point x="114.02" y="-8"/>
    </contour>
  </outline>
</glyph>
<glyph name="b" format="2">
  <advance width="788.64"/>
  <unicode hex="0062"/>
  <anchor x="-436.4" y="0" name="bottom"/>
  <anchor x="-591.4" y="594" name="center"/>
  <anchor x="-436.4" y="510" name="top"/>
  <outline>
    <contour>
      <point x="452.84" y="-8" type="curve" smooth="yes"/>
      <point x="678.46" y="-8"/>
      <point x="719.54" y="31.52"/>
      <point x="719.54" y="251" type="curve" smooth="yes"/>
      <point x="719.54" y="259" type="line" smooth="yes"/>
      <point x="719.54" y="478.48"/>
      <point x="678.46" y="518"/>
      <point x="452.84" y="518" type="curve" smooth="yes"/>
      <point x="307.5" y="518"/>
      <point x="226.9" y="487.1"/>
      <point x="190.62" y="417.2" type="curve"/>
      <point x="186.6" y="417.2" type="line"/>
      <point x="186.6" y="743" type="line"/>
      <point x="98.68" y="743" type="line"/>
      <point x="98.68" y="0" type="line"/>
      <point x="174.48" y="0" type="line"/>
      <point x="186.6" y="92.8" type="line"/>
      <point x="190.62" y="92.8" type="line"/>
      <point x="226.9" y="22.9"/>
      <point x="307.5" y="-8"/>
    </contour>
    <contour>
      <point x="419.5" y="64.2" type="curve" smooth="yes"/>
      <point x="239.48" y="64.2"/>
      <point x="186.6" y="105.84"/>
      <point x="186.6" y="244.14" type="curve" smooth="yes"/>
      <point x="186.6" y="265.86" type="line" smooth="yes"/>
      <point x="186.6" y="404.16"/>
      <point x="239.48" y="445.8"/>
      <point x="419.5" y="445.8" type="curve" smooth="yes"/>
      <point x="605.6" y="445.8"/>
      <point x="631.62" y="424.94"/>
      <point x="631.62" y="306.3" type="curve" smooth="yes"/>
      <point x="631.62" y="203.7" type="line" smooth="yes"/>
      <point x="631.62" y="85.06"/>
      <point x="605.6" y="64.2"/>
    </contour>
  </outline>
</glyph>
<glyph name="c" format="2">
  <advance width="628"/>
  <unicode hex="0063"/>
  <anchor x="313.58" y="0" name="bottom"/>
  <anchor x="313.58" y="510" name="top"/>
  <outline>
    <contour>
      <point x="365.1" y="-8" type="curve" smooth="yes"/>
      <point x="443.44" y="-8"/>
      <point x="533.92" y="-2"/>
      <point x="587.18" y="7" type="curve"/>
      <point x="587.18" y="77.2" type="line"/>
      <point x="531.92" y="69.22"/>
      <point x="438.46" y="64.2"/>
      <point x="365.1" y="64.2" type="curve" smooth="yes"/>
      <point x="171.08" y="64.2"/>
      <point x="157.02" y="76.08"/>
      <point x="157.02" y="231.26" type="curve" smooth="yes"/>
      <point x="157.02" y="278.74" type="line" smooth="yes"/>
      <point x="157.02" y="433.92"/>
      <point x="171.08" y="445.8"/>
      <point x="365.1" y="445.8" type="curve" smooth="yes"/>
      <point x="436.46" y="445.8"/>
      <point x="527.92" y="440.8"/>
      <point x="582.18" y="432.8" type="curve"/>
      <point x="582.18" y="503" type="line"/>
      <point x="529.92" y="512"/>
      <point x="441.48" y="518"/>
      <point x="365.1" y="518" type="curve" smooth="yes"/>
      <point x="113.14" y="518"/>
      <point x="69.1" y="479"/>
      <point x="69.1" y="259" type="curve" smooth="yes"/>
      <point x="69.1" y="251" type="line" smooth="yes"/>
      <point x="69.1" y="31"/>
      <point x="113.14" y="-8"/>
    </contour>
  </outline>
</glyph>
<glyph name="d" format="2">
  <advance width="789"/>
  <unicode hex="0064"/>
  <anchor x="310" y="0" name="bottom"/>
  <anchor x="464" y="594" name="center"/>
  <anchor x="310" y="510" name="top"/>
  <anchor x="519" y="743" name="topright"/>
  <outline>
    <contour>
      <point x="336" y="-8" type="curve" smooth="yes"/>
      <point x="482" y="-8"/>
      <point x="562" y="23"/>
      <point x="598" y="93" type="curve"/>
      <point x="602" y="93" type="line"/>
      <point x="615" y="0" type="line"/>
      <point x="690" y="0" type="line"/>
      <point x="690" y="743" type="line"/>
      <point x="602" y="743" type="line"/>
      <point x="602" y="417" type="line"/>
      <point x="598" y="417" type="line"/>
      <point x="562" y="487"/>
      <point x="482" y="518"/>
      <point x="336" y="518" type="curve" smooth="yes"/>
      <point x="111" y="518"/>
      <point x="69" y="478"/>
      <point x="69" y="259" type="curve" smooth="yes"/>
      <point x="69" y="251" type="line" smooth="yes"/>
      <point x="69" y="32"/>
      <point x="111" y="-8"/>
    </contour>
    <contour>
      <point x="370" y="64" type="curve" smooth="yes"/>
      <point x="183" y="64"/>
      <point x="157" y="85"/>
      <point x="157" y="204" type="curve" smooth="yes"/>
      <point x="157" y="306" type="line" smooth="yes"/>
      <point x="157" y="425"/>
      <point x="183" y="446"/>
      <point x="370" y="446" type="curve" smooth="yes"/>
      <point x="550" y="446"/>
      <point x="602" y="404"/>
      <point x="602" y="266" type="curve" smooth="yes"/>
      <point x="602" y="244" type="line" smooth="yes"/>
      <point x="602" y="106"/>
      <point x="550" y="64"/>
    </contour>
  </outline>
</glyph>
<glyph name="e" format="2">
  <advance width="735.76"/>
  <unicode hex="0065"/>
  <anchor x="367.02" y="0" name="bottom"/>
  <anchor x="679.02" y="10" name="ogonek"/>
  <anchor x="367.02" y="510" name="top"/>
  <outline>
    <contour>
      <point x="375.02" y="-8" type="curve" smooth="yes"/>
      <point x="476.1" y="-8"/>
      <point x="590.58" y="0"/>
      <point x="653.94" y="12" type="curve"/>
      <point x="653.94" y="81.8" type="line"/>
      <point x="580.14" y="70.8"/>
      <point x="465.9" y="63.8"/>
      <point x="377.98" y="63.8" type="curve" smooth="yes"/>
      <point x="180.22" y="63.8"/>
      <point x="157.02" y="75.68"/>
      <point x="157.02" y="231.2" type="curve" smooth="yes"/>
      <point x="157.02" y="278.8" type="line" smooth="yes"/>
      <point x="157.02" y="434.3"/>
      <point x="180.02" y="446.2"/>
      <point x="375.02" y="446.2" type="curve" smooth="yes"/>
      <point x="564.02" y="446.2"/>
      <point x="586.02" y="434.3"/>
      <point x="586.02" y="278.8" type="curve" smooth="yes"/>
      <point x="586.02" y="245.02" type="line"/>
      <point x="627.52" y="287.12" type="line"/>
      <point x="119.02" y="287.12" type="line"/>
      <point x="119.02" y="214.72" type="line"/>
      <point x="673.54" y="214.72" type="line"/>
      <point x="673.54" y="259" type="line" smooth="yes"/>
      <point x="673.54" y="478.3"/>
      <point x="627.88" y="518"/>
      <point x="375.02" y="518" type="curve" smooth="yes"/>
      <point x="116.84" y="518"/>
      <point x="69.1" y="478.3"/>
      <point x="69.1" y="259" type="curve" smooth="yes"/>
      <point x="69.1" y="251" type="line" smooth="yes"/>
      <point x="69.1" y="31.2"/>
      <point x="116.16" y="-8"/>
    </contour>
  </outline>
</glyph>
<glyph name="f" format="2">
  <advance width="429.78"/>
  <unicode hex="0066"/>
  <anchor x="223.8" y="0" name="bottom"/>
  <anchor x="223.8" y="743" name="top"/>
  <outline>
    <contour>
      <point x="163.84" y="0" type="line"/>
      <point x="251.76" y="0" type="line"/>
      <point x="251.76" y="595.4" type="line" smooth="yes"/>
      <point x="251.76" y="658.74"/>
      <point x="280.86" y="670.8"/>
      <point x="424.84" y="670.8" type="curve"/>
      <point x="424.84" y="743" type="line"/>
      <point x="220.36" y="743"/>
      <point x="163.84" y="709.44"/>
      <point x="163.84" y="588.4" type="curve" smooth="yes"/>
    </contour>
    <contour>
      <point x="19.76" y="437.8" type="line"/>
      <point x="183.8" y="437.8" type="line"/>
      <point x="183.8" y="510" type="line"/>
      <point x="19.76" y="510" type="line"/>
    </contour>
    <contour>
      <point x="232.8" y="437.8" type="line"/>
      <point x="424.84" y="437.8" type="line"/>
      <point x="424.82" y="510" type="line"/>
      <point x="232.8" y="510" type="line"/>
    </contour>
  </outline>
</glyph>
<glyph name="g" format="2">
  <advance width="789"/>
  <unicode hex="0067"/>
  <anchor x="531.9" y="-200" name="bottom"/>
  <anchor x="1380.04" y="-84" name="center"/>
  <anchor x="531.9" y="510" name="top"/>
  <outline>
    <contour>
      <point x="387.1" y="-208.6" type="curve" smooth="yes"/>
      <point x="649.62" y="-208.6"/>
      <point x="689.96" y="-174.4"/>
      <point x="689.96" y="50.4" type="curve" smooth="yes"/>
      <point x="689.96" y="510" type="line"/>
      <point x="614.16" y="510" type="line"/>
      <point x="602.04" y="417.2" type="line"/>
      <point x="598.02" y="417.2" type="line"/>
      <point x="561.74" y="487.1"/>
      <point x="481.18" y="518"/>
      <point x="335.8" y="518" type="curve" smooth="yes"/>
      <point x="110.18" y="518"/>
      <point x="69.1" y="478.5"/>
      <point x="69.1" y="259" type="curve" smooth="yes"/>
      <point x="69.1" y="251" type="line" smooth="yes"/>
      <point x="69.1" y="31.56"/>
      <point x="110.24" y="-8"/>
      <point x="335.8" y="-8" type="curve" smooth="yes"/>
      <point x="481.16" y="-8"/>
      <point x="561.72" y="22.9"/>
      <point x="598" y="92.8" type="curve"/>
      <point x="602.02" y="92.8" type="line"/>
      <point x="602.04" y="30.5" type="line" smooth="yes"/>
      <point x="602.04" y="-124.92"/>
      <point x="588.94" y="-136.8"/>
      <point x="405.1" y="-136.8" type="curve" smooth="yes"/>
      <point x="298.82" y="-136.8"/>
      <point x="211.72" y="-132.8"/>
      <point x="126.52" y="-123.8" type="curve"/>
      <point x="126.52" y="-193.6" type="line"/>
      <point x="222.74" y="-203.6"/>
      <point x="305.78" y="-208.6"/>
    </contour>
    <contour>
      <point x="369.14" y="64.2" type="curve" smooth="yes"/>
      <point x="183.08" y="64.2"/>
      <point x="157.02" y="85.04"/>
      <point x="157.02" y="203.7" type="curve" smooth="yes"/>
      <point x="157.02" y="306.3" type="line" smooth="yes"/>
      <point x="157.02" y="424.96"/>
      <point x="183.08" y="445.8"/>
      <point x="369.14" y="445.8" type="curve" smooth="yes"/>
      <point x="549.1" y="445.8"/>
      <point x="602.04" y="404.24"/>
      <point x="602.04" y="265.86" type="curve" smooth="yes"/>
      <point x="602.04" y="244.14" type="line" smooth="yes"/>
      <point x="602.04" y="105.76"/>
      <point x="549.1" y="64.2"/>
    </contour>
  </outline>
</glyph>
<glyph name="h" format="2">
  <advance width="793"/>
  <unicode hex="0068"/>
  <anchor x="395.6" y="0" name="bottom"/>
  <anchor x="395.6" y="510" name="top"/>
  <outline>
    <contour>
      <point x="98.68" y="0" type="line"/>
      <point x="186.6" y="0" type="line"/>
      <point x="186.6" y="265.94" type="line" smooth="yes"/>
      <point x="186.6" y="414.72"/>
      <point x="228.46" y="445.8"/>
      <point x="419.64" y="445.8" type="curve" smooth="yes"/>
      <point x="582.56" y="445.8"/>
      <point x="610.6" y="427.38"/>
      <point x="610.6" y="327.96" type="curve" smooth="yes"/>
      <point x="610.6" y="0" type="line"/>
      <point x="698.52" y="0" type="line"/>
      <point x="698.52" y="340.84" type="line" smooth="yes"/>
      <point x="698.52" y="476.48"/>
      <point x="642.16" y="518"/>
      <point x="452.6" y="518" type="curve" smooth="yes"/>
      <point x="305.96" y="518"/>
      <point x="224.04" y="491.92"/>
      <point x="186.6" y="431.8" type="curve"/>
      <point x="186.6" y="743" type="line"/>
      <point x="98.68" y="743" type="line"/>
    </contour>
  </outline>
</glyph>
<glyph name="i" format="2">
  <advance width="286"/>
  <unicode hex="0069"/>
  <anchor x="126.64" y="0" name="bottom"/>
  <anchor x="186.6" y="0" name="ogonek"/>
  <anchor x="143.04" y="720.48" name="top"/>
  <outline>
    <contour>
      <point x="98.68" y="0" type="line"/>
      <point x="186.6" y="0" type="line"/>
      <point x="186.6" y="510" type="line"/>
      <point x="98.68" y="510" type="line"/>
    </contour>
    <contour>
      <point x="96" y="626" type="line"/>
      <point x="190" y="626" type="line"/>
      <point x="190" y="719" type="line"/>
      <point x="96" y="719" type="line"/>
    </contour>
  </outline>
</glyph>
<glyph name="j" format="2">
  <advance width="286"/>
  <unicode hex="006A"/>
  <anchor x="142.64" y="-200" name="bottom"/>
  <anchor x="143.04" y="720.48" name="top"/>
  <outline>
    <contour>
      <point x="186.6" y="510" type="line"/>
      <point x="98.68" y="510" type="line"/>
      <point x="98.68" y="-52.4" type="line" smooth="yes"/>
      <point x="98.68" y="-115.74"/>
      <point x="69.52" y="-127.8"/>
      <point x="-74.76" y="-127.8" type="curve"/>
      <point x="-74.76" y="-200" type="line"/>
      <point x="130" y="-200"/>
      <point x="186.6" y="-166.44"/>
      <point x="186.6" y="-45.4" type="curve" smooth="yes"/>
    </contour>
    <contour>
      <point x="96" y="626" type="line"/>
      <point x="190" y="626" type="line"/>
      <point x="190" y="719" type="line"/>
      <point x="96" y="719" type="line"/>
    </contour>
  </outline>
</glyph>
<glyph name="k" format="2">
  <advance width="687.94"/>
  <unicode hex="006B"/>
  <anchor x="328.38" y="0" name="bottom"/>
  <anchor x="328.38" y="510" name="top"/>
  <outline>
    <contour>
      <point x="186.6" y="223.9" type="line"/>
      <point x="391.8" y="223.9" type="line"/>
      <point x="565.36" y="0" type="line"/>
      <point x="673.12" y="0" type="line"/>
      <point x="470.78" y="260" type="line"/>
      <point x="667.98" y="510" type="line"/>
      <point x="563.58" y="510" type="line"/>
      <point x="395.16" y="296.1" type="line"/>
      <point x="186.6" y="296.1" type="line"/>
    </contour>
    <contour>
      <point x="98.68" y="0" type="line"/>
      <point x="186.6" y="0" type="line"/>
      <point x="186.6" y="743" type="line"/>
      <point x="98.68" y="743" type="line"/>
    </contour>
  </outline>
</glyph>
<glyph name="l" format="2">
  <advance width="286"/>
  <unicode hex="006C"/>
  <anchor x="142.64" y="0" name="bottom"/>
  <anchor x="142.64" y="372" name="center"/>
  <anchor x="142.64" y="743" name="top"/>
  <anchor x="186.6" y="743" name="topright"/>
  <outline>
    <contour>
      <point x="98.68" y="0" type="line"/>
      <point x="186.6" y="0" type="line"/>
      <point x="186.6" y="743" type="line"/>
      <point x="98.68" y="743" type="line"/>
    </contour>
  </outline>
</glyph>
<glyph name="m" format="2">
  <advance width="1304"/>
  <unicode hex="006D"/>
  <anchor x="626.6" y="-11" name="bottom"/>
  <anchor x="395.6" y="510" name="top"/>
  <outline>
    <contour>
      <point x="98.68" y="0" type="line"/>
      <point x="186.6" y="0" type="line"/>
      <point x="186.6" y="216.68" type="line" smooth="yes"/>
      <point x="186.6" y="404.4"/>
      <point x="230.68" y="445.8"/>
      <point x="429.64" y="445.8" type="curve" smooth="yes"/>
      <point x="584.56" y="445.8"/>
      <point x="610.6" y="421.42"/>
      <point x="610.6" y="282.68" type="curve" smooth="yes"/>
      <point x="610.6" y="0" type="line"/>
      <point x="698.52" y="0" type="line"/>
      <point x="698.52" y="256.68" type="line" smooth="yes"/>
      <point x="698.52" y="412.4"/>
      <point x="741.6" y="445.8"/>
      <point x="941.56" y="445.8" type="curve" smooth="yes"/>
      <point x="1096.48" y="445.8"/>
      <point x="1122.52" y="421.42"/>
      <point x="1122.52" y="282.68" type="curve" smooth="yes"/>
      <point x="1122.52" y="0" type="line"/>
      <point x="1210.44" y="0" type="line"/>
      <point x="1210.44" y="295.6" type="line" smooth="yes"/>
      <point x="1210.44" y="467.7"/>
      <point x="1156.04" y="518"/>
      <point x="974.52" y="518" type="curve" smooth="yes"/>
      <point x="811.56" y="518"/>
      <point x="735.58" y="495.94"/>
      <point x="692.98" y="427" type="curve"/>
      <point x="688.98" y="427" type="line"/>
      <point x="659.52" y="493.98"/>
      <point x="591.82" y="518"/>
      <point x="462.6" y="518" type="curve" smooth="yes"/>
      <point x="311.96" y="518"/>
      <point x="228.08" y="490"/>
      <point x="190.64" y="427" type="curve"/>
      <point x="186.64" y="427" type="line"/>
      <point x="174.6" y="510" type="line"/>
      <point x="98.68" y="510" type="line"/>
    </contour>
  </outline>
</glyph>
<glyph name="n" format="2">
  <advance width="793"/>
  <unicode hex="006E"/>
  <anchor x="395.6" y="0" name="bottom"/>
  <anchor x="395.6" y="510" name="top"/>
  <outline>
    <contour>
      <point x="98.68" y="0" type="line"/>
      <point x="186.6" y="0" type="line"/>
      <point x="186.6" y="265.94" type="line" smooth="yes"/>
      <point x="186.6" y="414.72"/>
      <point x="228.46" y="445.8"/>
      <point x="419.64" y="445.8" type="curve" smooth="yes"/>
      <point x="582.56" y="445.8"/>
      <point x="610.6" y="427.38"/>
      <point x="610.6" y="327.96" type="curve" smooth="yes"/>
      <point x="610.6" y="0" type="line"/>
      <point x="698.52" y="0" type="line"/>
      <point x="698.52" y="340.84" type="line" smooth="yes"/>
      <point x="698.52" y="476.48"/>
      <point x="642.16" y="518"/>
      <point x="452.6" y="518" type="curve" smooth="yes"/>
      <point x="307.96" y="518"/>
      <point x="227.08" y="491.92"/>
      <point x="190.64" y="431.8" type="curve"/>
      <point x="186.64" y="431.8" type="line"/>
      <point x="174.6" y="510" type="line"/>
      <point x="98.68" y="510" type="line"/>
    </contour>
  </outline>
</glyph>
<glyph name="o" format="2">
  <advance width="758.04"/>
  <unicode hex="006F"/>
  <anchor x="379.02" y="0" name="bottom"/>
  <anchor x="379.02" y="255" name="center"/>
  <anchor x="701.02" y="10" name="ogonek"/>
  <anchor x="379.02" y="510" name="top"/>
  <anchor x="754.02" y="510" name="topright"/>
  <outline>
    <contour>
      <point x="379.02" y="-8" type="curve" smooth="yes"/>
      <point x="641.2" y="-8"/>
      <point x="688.94" y="31.7"/>
      <point x="688.94" y="251" type="curve" smooth="yes"/>
      <point x="688.94" y="259" type="line" smooth="yes"/>
      <point x="688.94" y="478.3"/>
      <point x="641.2" y="518"/>
      <point x="379.02" y="518" type="curve" smooth="yes"/>
      <point x="116.9" y="518"/>
      <point x="69.1" y="478.78"/>
      <point x="69.1" y="259" type="curve" smooth="yes"/>
      <point x="69.1" y="251" type="line" smooth="yes"/>
      <point x="69.1" y="31.7"/>
      <point x="116.84" y="-8"/>
    </contour>
    <contour>
      <point x="379.02" y="64.2" type="curve" smooth="yes"/>
      <point x="186.02" y="64.2"/>
      <point x="157.02" y="86.08"/>
      <point x="157.02" y="231.3" type="curve" smooth="yes"/>
      <point x="157.02" y="278.66" type="line" smooth="yes"/>
      <point x="157.02" y="423.86"/>
      <point x="186.02" y="445.8"/>
      <point x="379.02" y="445.8" type="curve" smooth="yes"/>
      <point x="572.02" y="445.8"/>
      <point x="601.02" y="423.86"/>
      <point x="601.02" y="278.66" type="curve" smooth="yes"/>
      <point x="601.02" y="231.3" type="line" smooth="yes"/>
      <point x="601.02" y="86.08"/>
      <point x="572.02" y="64.2"/>
    </contour>
  </outline>
</glyph>
<glyph name="p" format="2">
  <advance width="788.64"/>
  <unicode hex="0070"/>
  <anchor x="403.26" y="0" name="bottom"/>
  <anchor x="-591.4" y="-84" name="center"/>
  <anchor x="403.26" y="510" name="top"/>
  <outline>
    <contour>
      <point x="98.68" y="-233" type="line"/>
      <point x="186.6" y="-233" type="line"/>
      <point x="186.6" y="92.8" type="line"/>
      <point x="190.62" y="92.8" type="line"/>
      <point x="226.9" y="22.9"/>
      <point x="307.5" y="-8"/>
      <point x="452.84" y="-8" type="curve" smooth="yes"/>
      <point x="678.28" y="-8"/>
      <point x="719.54" y="31.7"/>
      <point x="719.54" y="251" type="curve" smooth="yes"/>
      <point x="719.54" y="259" type="line" smooth="yes"/>
      <point x="719.54" y="478.3"/>
      <point x="678.28" y="518"/>
      <point x="452.84" y="518" type="curve" smooth="yes"/>
      <point x="307.5" y="518"/>
      <point x="226.9" y="487.1"/>
      <point x="190.62" y="417.2" type="curve"/>
      <point x="186.6" y="417.2" type="line"/>
      <point x="174.48" y="510" type="line"/>
      <point x="98.68" y="510" type="line"/>
    </contour>
    <contour>
      <point x="419.5" y="64.2" type="curve" smooth="yes"/>
      <point x="239.48" y="64.2"/>
      <point x="186.6" y="105.84"/>
      <point x="186.6" y="244.14" type="curve" smooth="yes"/>
      <point x="186.6" y="265.86" type="line" smooth="yes"/>
      <point x="186.6" y="404.16"/>
      <point x="239.48" y="445.8"/>
      <point x="419.5" y="445.8" type="curve" smooth="yes"/>
      <point x="605.6" y="445.8"/>
      <point x="631.62" y="424.94"/>
      <point x="631.62" y="306.3" type="curve" smooth="yes"/>
      <point x="631.62" y="203.7" type="line" smooth="yes"/>
      <point x="631.62" y="85.06"/>
      <point x="605.6" y="64.2"/>
    </contour>
  </outline>
</glyph>
<glyph name="q" format="2">
  <advance width="788.64"/>
  <unicode hex="0071"/>
  <anchor x="310" y="0" name="bottom"/>
  <anchor x="1380.04" y="-84" name="center"/>
  <anchor x="310" y="510" name="top"/>
  <outline>
    <contour>
      <point x="602.04" y="-233" type="line"/>
      <point x="689.96" y="-233" type="line"/>
      <point x="689.96" y="510" type="line"/>
      <point x="614.16" y="510" type="line"/>
      <point x="602.04" y="417.2" type="line"/>
      <point x="598.02" y="417.2" type="line"/>
      <point x="561.74" y="487.1"/>
      <point x="481.14" y="518"/>
      <point x="335.8" y="518" type="curve" smooth="yes"/>
      <point x="110.36" y="518"/>
      <point x="69.1" y="478.3"/>
      <point x="69.1" y="259" type="curve" smooth="yes"/>
      <point x="69.1" y="251" type="line" smooth="yes"/>
      <point x="69.1" y="31.7"/>
      <point x="110.36" y="-8"/>
      <point x="335.8" y="-8" type="curve" smooth="yes"/>
      <point x="481.14" y="-8"/>
      <point x="561.74" y="22.9"/>
      <point x="598.02" y="92.8" type="curve"/>
      <point x="602.04" y="92.8" type="line"/>
    </contour>
    <contour>
      <point x="369.14" y="64.2" type="curve" smooth="yes"/>
      <point x="183.04" y="64.2"/>
      <point x="157.02" y="85.06"/>
      <point x="157.02" y="203.7" type="curve" smooth="yes"/>
      <point x="157.02" y="306.3" type="line" smooth="yes"/>
      <point x="157.02" y="424.94"/>
      <point x="183.04" y="445.8"/>
      <point x="369.14" y="445.8" type="curve" smooth="yes"/>
      <point x="549.16" y="445.8"/>
      <point x="602.04" y="404.16"/>
      <point x="602.04" y="265.86" type="curve" smooth="yes"/>
      <point x="602.04" y="244.14" type="line" smooth="yes"/>
      <point x="602.04" y="105.84"/>
      <point x="549.16" y="64.2"/>
    </contour>
  </outline>
</glyph>
<glyph name="r" format="2">
  <advance width="490"/>
  <unicode hex="0072"/>
  <anchor x="251.26" y="0" name="bottom"/>
  <anchor x="251.26" y="510" name="top"/>
  <outline>
    <contour>
      <point x="98.68" y="0" type="line"/>
      <point x="186.6" y="0" type="line"/>
      <point x="186.6" y="217.2" type="line" smooth="yes"/>
      <point x="186.6" y="404.16"/>
      <point x="230.62" y="445.8"/>
      <point x="429.66" y="445.8" type="curve" smooth="yes"/>
      <point x="462" y="445.8" type="line"/>
      <point x="462" y="518" type="line"/>
      <point x="311.72" y="518"/>
      <point x="227.96" y="490"/>
      <point x="190.64" y="427" type="curve"/>
      <point x="186.64" y="427" type="line"/>
      <point x="174.6" y="510" type="line"/>
      <point x="98.68" y="510" type="line"/>
    </contour>
  </outline>
</glyph>
<glyph name="s" format="2">
  <advance width="649.04"/>
  <unicode hex="0073"/>
  <anchor x="325" y="0" name="bottom"/>
  <anchor x="325" y="510" name="top"/>
  <outline>
    <contour>
      <point x="321.34" y="-8" type="curve" smooth="yes"/>
      <point x="523.68" y="-8"/>
      <point x="584.88" y="28"/>
      <point x="584.88" y="146.7" type="curve" smooth="yes"/>
      <point x="584.88" y="234.4"/>
      <point x="542.12" y="276.7"/>
      <point x="442.36" y="286.74" type="curve" smooth="yes"/>
      <point x="242.9" y="301.94" type="line" smooth="yes"/>
      <point x="166.1" y="307.94"/>
      <point x="152.08" y="317.84"/>
      <point x="152.08" y="366.86" type="curve" smooth="yes"/>
      <point x="152.08" y="433.38"/>
      <point x="180.26" y="446.2"/>
      <point x="328.38" y="446.2" type="curve" smooth="yes"/>
      <point x="403.06" y="446.2"/>
      <point x="488.62" y="441.08"/>
      <point x="554.76" y="432.98" type="curve"/>
      <point x="554.76" y="502.9" type="line"/>
      <point x="474.98" y="511.9"/>
      <point x="387.32" y="518"/>
      <point x="327.92" y="518" type="curve" smooth="yes"/>
      <point x="127.1" y="518"/>
      <point x="64.16" y="482.02"/>
      <point x="64.16" y="367.18" type="curve" smooth="yes"/>
      <point x="64.16" y="278.56"/>
      <point x="108.9" y="235.32"/>
      <point x="206.64" y="228.26" type="curve" smooth="yes"/>
      <point x="406.22" y="213.06" type="line" smooth="yes"/>
      <point x="483.74" y="207.12"/>
      <point x="496.96" y="197.08"/>
      <point x="496.96" y="146.12" type="curve" smooth="yes"/>
      <point x="496.96" y="77.56"/>
      <point x="468.8" y="63.8"/>
      <point x="327.52" y="63.8" type="curve" smooth="yes"/>
      <point x="242.82" y="63.8"/>
      <point x="141.32" y="68.88"/>
      <point x="71.2" y="77.02" type="curve"/>
      <point x="71.2" y="7.14" type="line"/>
      <point x="156.18" y="-1.9"/>
      <point x="254.42" y="-8"/>
    </contour>
  </outline>
</glyph>
<glyph name="t" format="2">
  <advance width="429.78"/>
  <unicode hex="0074"/>
  <anchor x="223.8" y="0" name="bottom"/>
  <anchor x="223.8" y="743" name="top"/>
  <outline>
    <contour>
      <point x="163.84" y="0" type="line"/>
      <point x="251.76" y="0" type="line"/>
      <point x="251.76" y="688" type="line"/>
      <point x="163.84" y="688" type="line"/>
    </contour>
    <contour>
      <point x="19.76" y="437.8" type="line"/>
      <point x="183.8" y="437.8" type="line"/>
      <point x="183.8" y="510" type="line"/>
      <point x="19.76" y="510" type="line"/>
    </contour>
    <contour>
      <point x="232.8" y="437.8" type="line"/>
      <point x="424.84" y="437.8" type="line"/>
      <point x="424.82" y="510" type="line"/>
      <point x="232.8" y="510" type="line"/>
    </contour>
  </outline>
</glyph>
<glyph name="u" format="2">
  <advance width="793"/>
  <unicode hex="0075"/>
  <anchor x="396.6" y="0" name="bottom"/>
  <anchor x="713.3" y="10" name="ogonek"/>
  <anchor x="396.6" y="510" name="top"/>
  <anchor x="772.26" y="510" name="topright"/>
  <outline>
    <contour>
      <point x="693.58" y="510" type="line"/>
      <point x="605.66" y="510" type="line"/>
      <point x="605.66" y="244.06" type="line" smooth="yes"/>
      <point x="605.66" y="95.28"/>
      <point x="563.8" y="64.2"/>
      <point x="372.62" y="64.2" type="curve" smooth="yes"/>
      <point x="209.7" y="64.2"/>
      <point x="181.66" y="82.62"/>
      <point x="181.66" y="182.04" type="curve" smooth="yes"/>
      <point x="181.66" y="510" type="line"/>
      <point x="93.74" y="510" type="line"/>
      <point x="93.74" y="169.16" type="line" smooth="yes"/>
      <point x="93.74" y="33.52"/>
      <point x="150.1" y="-8"/>
      <point x="339.66" y="-8" type="curve" smooth="yes"/>
      <point x="484.3" y="-8"/>
      <point x="565.18" y="18.08"/>
      <point x="601.62" y="78.2" type="curve"/>
      <point x="605.62" y="78.2" type="line"/>
      <point x="617.66" y="0" type="line"/>
      <point x="693.58" y="0" type="line"/>
    </contour>
  </outline>
</glyph>
<glyph name="v" format="2">
  <advance width="696.72"/>
  <unicode hex="0076"/>
  <anchor x="352.78" y="0" name="bottom"/>
  <anchor x="352.78" y="510" name="top"/>
  <outline>
    <contour>
      <point x="296.46" y="0" type="line"/>
      <point x="400.2" y="0" type="line"/>
      <point x="672.02" y="510" type="line"/>
      <point x="578.06" y="510" type="line"/>
      <point x="351.7" y="80.9" type="line"/>
      <point x="347.7" y="80.9" type="line"/>
      <point x="121.62" y="510" type="line"/>
      <point x="24.7" y="510" type="line"/>
    </contour>
  </outline>
</glyph>
<glyph name="w" format="2">
  <advance width="869.06"/>
  <unicode hex="0077"/>
  <anchor x="336.12" y="0" name="bottom"/>
  <anchor x="336.12" y="510" name="top"/>
  <outline>
    <contour>
      <point x="171.74" y="0" type="line"/>
      <point x="282.26" y="0" type="line"/>
      <point x="434.7" y="399.12" type="line"/>
      <point x="586.82" y="0" type="line"/>
      <point x="697.34" y="0" type="line"/>
      <point x="844.36" y="510" type="line"/>
      <point x="755.96" y="510" type="line"/>
      <point x="642.22" y="83.42" type="line"/>
      <point x="638.22" y="83.42" type="line"/>
      <point x="476.44" y="510" type="line"/>
      <point x="395.52" y="510" type="line"/>
      <point x="233.34" y="83.42" type="line"/>
      <point x="229.34" y="83.42" type="line"/>
      <point x="115.8" y="510" type="line"/>
      <point x="24.7" y="510" type="line"/>
    </contour>
  </outline>
</glyph>
<glyph name="x" format="2">
  <advance width="665"/>
  <unicode hex="0078"/>
  <anchor x="527.64" y="0" name="bottom"/>
  <anchor x="527.64" y="510" name="top"/>
  <outline>
    <contour>
      <point x="528.14" y="0" type="line"/>
      <point x="644.62" y="0" type="line"/>
      <point x="136.3" y="510" type="line"/>
      <point x="19.76" y="510" type="line"/>
    </contour>
    <contour>
      <point x="19.76" y="0" type="line"/>
      <point x="139.12" y="0" type="line"/>
      <point x="644.62" y="510" type="line"/>
      <point x="525.26" y="510" type="line"/>
    </contour>
  </outline>
</glyph>
<glyph name="y" format="2">
  <advance width="793"/>
  <unicode hex="0079"/>
  <anchor x="396.4" y="0" name="bottom"/>
  <anchor x="396.4" y="510" name="top"/>
  <outline>
    <contour>
      <point x="394.5" y="-208.6" type="curve" smooth="yes"/>
      <point x="656.42" y="-208.6"/>
      <point x="693.6" y="-164.58"/>
      <point x="693.6" y="72.44" type="curve" smooth="yes"/>
      <point x="693.6" y="510" type="line"/>
      <point x="605.68" y="510" type="line"/>
      <point x="605.68" y="244.14" type="line" smooth="yes"/>
      <point x="605.68" y="105.76"/>
      <point x="563.74" y="64.2"/>
      <point x="383.78" y="64.2" type="curve" smooth="yes"/>
      <point x="197.72" y="64.2"/>
      <point x="181.66" y="85.04"/>
      <point x="181.66" y="203.7" type="curve" smooth="yes"/>
      <point x="181.66" y="510" type="line"/>
      <point x="93.74" y="510" type="line"/>
      <point x="93.74" y="251" type="line" smooth="yes"/>
      <point x="93.74" y="31.68"/>
      <point x="124.02" y="-8"/>
      <point x="349.46" y="-8" type="curve" smooth="yes"/>
      <point x="494.58" y="-8"/>
      <point x="565.4" y="22.9"/>
      <point x="601.64" y="92.8" type="curve"/>
      <point x="605.66" y="92.8" type="line"/>
      <point x="605.68" y="51" type="line" smooth="yes"/>
      <point x="605.68" y="-122.52"/>
      <point x="591.8" y="-136.4"/>
      <point x="389.6" y="-136.4" type="curve" smooth="yes"/>
      <point x="301.32" y="-136.4"/>
      <point x="199.38" y="-129.4"/>
      <point x="125.7" y="-118.4" type="curve"/>
      <point x="125.7" y="-188.6" type="line"/>
      <point x="189.02" y="-200.6"/>
      <point x="293.1" y="-208.6"/>
    </contour>
  </outline>
</glyph>
<glyph name="z" format="2">
  <advance width="572"/>
  <unicode hex="007A"/>
  <anchor x="354.4" y="0" name="bottom"/>
  <anchor x="348.4" y="255" name="center"/>
  <anchor x="354.4" y="510" name="top"/>
  <outline>
    <contour>
      <point x="24.7" y="0" type="line"/>
      <point x="546.5" y="0" type="line"/>
      <point x="546.5" y="74.4" type="line"/>
      <point x="152.82" y="74.4" type="line"/>
      <point x="152.82" y="78.4" type="line"/>
      <point x="544.38" y="443.04" type="line"/>
      <point x="544.38" y="510" type="line"/>
      <point x="36.7" y="510" type="line"/>
      <point x="36.7" y="435.6" type="line"/>
      <point x="416.26" y="435.6" type="line"/>
      <point x="416.26" y="431.6" type="line"/>
      <point x="24.7" y="66.96" type="line"/>
    </contour>
  </outline>
</glyph>
<glyph name="bar" format="2">
  <advance width="364.2"/>
  <unicode hex="007C"/>
  <outline>
    <contour>
      <point x="138.14" y="-161" type="line"/>
      <point x="226.06" y="-161" type="line"/>
      <point x="226.06" y="743" type="line"/>
      <point x="138.14" y="743" type="line"/>
    </contour>
  </outline>
</glyph>
<glyph name="idotless" format="2">
  <advance width="286"/>
  <unicode hex="0131"/>
  <anchor x="142.64" y="0" name="bottom"/>
  <anchor x="186.6" y="0" name="ogonek"/>
  <anchor x="142.64" y="510" name="top"/>
  <outline>
    <contour>
      <point x="98.68" y="0" type="line"/>
      <point x="186.6" y="0" type="line"/>
      <point x="186.6" y="510" type="line"/>
      <point x="98.68" y="510" type="line"/>
    </contour>
  </outline>
</glyph>
<glyph name="jdotless" format="2">
  <advance width="286"/>
  <unicode hex="0237"/>
  <anchor x="142.64" y="-200" name="bottom"/>
  <anchor x="142.64" y="510" name="top"/>
  <outline>
    <contour>
      <point x="186.6" y="510" type="line"/>
      <point x="98.68" y="510" type="line"/>
      <point x="98.68" y="-52.4" type="line" smooth="yes"/>
      <point x="98.68" y="-115.74"/>
      <point x="69.52" y="-127.8"/>
      <point x="-74.76" y="-127.8" type="curve"/>
      <point x="-74.76" y="-200" type="line"/>
      <point x="130" y="-200"/>
      <point x="186.6" y="-166.44"/>
      <point x="186.6" y="-45.4" type="curve" smooth="yes"/>
    </contour>
  </outline>
</glyph>
<glyph name="dotaccentcomb" format="2">
  <advance width="134.08"/>
  <unicode hex="0307"/>
  <anchor x="67.04" y="510" name="_top"/>
  <anchor x="67.04" y="720.48" name="top"/>
  <outline>
    <contour>
      <point x="20" y="626.4" type="line"/>
      <point x="114.08" y="626.4" type="line"/>
      <point x="114.08" y="718.88" type="line"/>
      <point x="20" y="718.88" type="line"/>
    </contour>
  </outline>
</glyph>
<glyph name="C.001" format="2">
  <advance width="796.7"/>
  <anchor x="377.88" y="0" name="bottom"/>
  <anchor x="377.88" y="688" name="top"/>
  <outline>
    <contour>
      <point x="448.96" y="-8" type="curve" smooth="yes"/>
      <point x="534.96" y="-8"/>
      <point x="635.96" y="-1"/>
      <point x="702.96" y="10" type="curve"/>
      <point x="702.96" y="83.02" type="line"/>
      <point x="647.96" y="73.08"/>
      <point x="558.96" y="68.12"/>
      <point x="448.96" y="68.12" type="curve" smooth="yes"/>
      <point x="178.96" y="68.12"/>
      <point x="156.96" y="86"/>
      <point x="156.96" y="310" type="curve" smooth="yes"/>
      <point x="156.96" y="378" type="line" smooth="yes"/>
      <point x="156.96" y="599"/>
      <point x="182.96" y="619.88"/>
      <point x="448.96" y="619.88" type="curve" smooth="yes"/>
      <point x="551.96" y="619.88"/>
      <point x="638.96" y="614.92"/>
      <point x="697.96" y="604.98" type="curve"/>
      <point x="697.96" y="676" type="line"/>
      <point x="631.96" y="688"/>
      <point x="529.96" y="696"/>
      <point x="448.96" y="696" type="curve" smooth="yes"/>
      <point x="128.92" y="696"/>
      <point x="69.04" y="643"/>
      <point x="69.04" y="349" type="curve" smooth="yes"/>
      <point x="69.04" y="339" type="line" smooth="yes"/>
      <point x="69.04" y="43"/>
      <point x="123.92" y="-8"/>
    </contour>
  </outline>
</glyph>
<glyph name="M.001" format="2">
  <advance width="976.24"/>
  <anchor x="488.12" y="0" name="bottom"/>
  <anchor x="488.12" y="688" name="top"/>
  <outline>
    <contour>
      <point x="98.68" y="0" type="line"/>
      <point x="183.64" y="0" type="line"/>
      <point x="183.64" y="554.6" type="line"/>
      <point x="187.64" y="554.6" type="line"/>
      <point x="448.84" y="0" type="line"/>
      <point x="525.44" y="0" type="line"/>
      <point x="785.64" y="554.6" type="line"/>
      <point x="789.64" y="554.6" type="line"/>
      <point x="789.64" y="0" type="line"/>
      <point x="877.56" y="0" type="line"/>
      <point x="877.56" y="688" type="line"/>
      <point x="756.68" y="688" type="line"/>
      <point x="490.22" y="117.2" type="line"/>
      <point x="486.16" y="117.2" type="line"/>
      <point x="219.66" y="688" type="line"/>
      <point x="98.68" y="688" type="line"/>
    </contour>
  </outline>
</glyph>
<glyph name="X.001" format="2">
  <advance width="674.54348"/>
  <anchor x="337.543" y="0" name="bottom"/>
  <anchor x="337.543" y="688" name="top"/>
  <outline>
    <contour>
      <point x="29.138" y="0" type="line"/>
      <point x="127.507" y="0" type="line"/>
      <point x="331.908" y="276.046" type="line"/>
      <point x="339.908" y="276.046" type="line"/>
      <point x="543.884" y="0" type="line"/>
      <point x="645.438" y="0" type="line"/>
      <point x="389.977" y="347.516" type="line"/>
      <point x="642.438" y="688" type="line"/>
      <point x="543.493" y="688" type="line"/>
      <point x="342.608" y="417.654" type="line"/>
      <point x="335.092" y="417.654" type="line"/>
      <point x="134.631" y="688" type="line"/>
      <point x="33.138" y="688" type="line"/>
      <point x="285.116" y="345.484" type="line"/>
    </contour>
  </outline>
</glyph>
<glyph name="Y.001" format="2">
  <advance width="739.3"/>
  <anchor x="378.56" y="0" name="bottom"/>
  <anchor x="378.56" y="688" name="top"/>
  <anchor x="16.56" y="688" name="topleft"/>
  <outline>
    <contour>
      <point x="325.74" y="0" type="line"/>
      <point x="413.66" y="0" type="line"/>
      <point x="413.66" y="291.2" type="line"/>
      <point x="404.58" y="253.34" type="line"/>
      <point x="729.42" y="688" type="line"/>
      <point x="625.28" y="688" type="line"/>
      <point x="373.32" y="349.14" type="line"/>
      <point x="369.32" y="349.14" type="line"/>
      <point x="117.36" y="688" type="line"/>
      <point x="9.88" y="688" type="line"/>
      <point x="334.78" y="253.22" type="line"/>
      <point x="325.74" y="291.2" type="line"/>
    </contour>
  </outline>
</glyph>
<glyph name="Z.001" format="2">
  <advance width="687.84"/>
  <anchor x="305.34" y="0" name="bottom"/>
  <anchor x="305.34" y="344" name="center"/>
  <anchor x="305.34" y="688" name="top"/>
  <outline>
    <contour>
      <point x="49.7" y="0" type="line"/>
      <point x="638.14" y="0" type="line"/>
      <point x="638.14" y="78.24" type="line"/>
      <point x="145.98" y="78.24" type="line"/>
      <point x="630.18" y="618.28" type="line"/>
      <point x="630.18" y="688" type="line"/>
      <point x="63.8" y="688" type="line"/>
      <point x="63.8" y="609.76" type="line"/>
      <point x="533.84" y="609.76" type="line"/>
      <point x="49.7" y="69.72" type="line"/>
    </contour>
  </outline>
</glyph>
<glyph name="_tail.Q" format="2">
  <advance width="172.68"/>
  <anchor x="63.84" y="10" name="_bottom"/>
  <outline>
    <contour>
      <point x="20" y="10" type="line"/>
      <point x="65" y="-146" type="line"/>
      <point x="152.68" y="-146" type="line"/>
      <point x="107.68" y="10" type="line"/>
    </contour>
  </outline>
</glyph>
<glyph name="a.001" format="2">
  <advance width="745.8"/>
  <anchor x="518.14" y="0" name="bottom"/>
  <anchor x="752.14" y="10" name="ogonek"/>
  <anchor x="518.14" y="510" name="top"/>
  <outline>
    <contour>
      <point x="277.54" y="-8" type="curve" smooth="yes"/>
      <point x="434.54" y="-8"/>
      <point x="521.6" y="17.08"/>
      <point x="563.1" y="73.2" type="curve"/>
      <point x="567.1" y="73.2" type="line"/>
      <point x="576.14" y="0" type="line"/>
      <point x="652.06" y="0" type="line"/>
      <point x="652.06" y="259" type="line" smooth="yes"/>
      <point x="652.06" y="478.8"/>
      <point x="607.02" y="518"/>
      <point x="356.44" y="518" type="curve" smooth="yes"/>
      <point x="258.72" y="518"/>
      <point x="147.06" y="509.82"/>
      <point x="87.22" y="497.7" type="curve"/>
      <point x="87.22" y="427.9" type="line"/>
      <point x="157.62" y="439.02"/>
      <point x="268.08" y="446.2"/>
      <point x="352.44" y="446.2" type="curve" smooth="yes"/>
      <point x="541.98" y="446.2"/>
      <point x="564.14" y="434.4"/>
      <point x="564.14" y="279.92" type="curve" smooth="yes"/>
      <point x="564.14" y="245.36" type="line" smooth="yes"/>
      <point x="564.14" y="103.84"/>
      <point x="507.64" y="64.6"/>
      <point x="293.1" y="64.6" type="curve" smooth="yes"/>
      <point x="177.88" y="64.6"/>
      <point x="150.14" y="81.18"/>
      <point x="150.14" y="149.7" type="curve" smooth="yes"/>
      <point x="150.14" y="218.16"/>
      <point x="178.14" y="233.8"/>
      <point x="293.14" y="233.8" type="curve" smooth="yes"/>
      <point x="611.74" y="233.8" type="line"/>
      <point x="611.74" y="306.2" type="line"/>
      <point x="280.78" y="306.2" type="line" smooth="yes"/>
      <point x="117.68" y="306.2"/>
      <point x="62.22" y="265.9"/>
      <point x="62.22" y="149.3" type="curve" smooth="yes"/>
      <point x="62.22" y="32.98"/>
      <point x="116.64" y="-8"/>
    </contour>
  </outline>
</glyph>
<glyph name="c.001" format="2">
  <advance width="626.48"/>
  <anchor x="313.06" y="0" name="bottom"/>
  <anchor x="313.06" y="510" name="top"/>
  <outline>
    <contour>
      <point x="361.7" y="-8" type="curve" smooth="yes"/>
      <point x="440.54" y="-8"/>
      <point x="531.46" y="-2"/>
      <point x="585.02" y="7" type="curve"/>
      <point x="585.02" y="77.2" type="line"/>
      <point x="530.02" y="69.22"/>
      <point x="437.02" y="64.2"/>
      <point x="364.02" y="64.2" type="curve" smooth="yes"/>
      <point x="171.02" y="64.2"/>
      <point x="157.02" y="76.08"/>
      <point x="157.02" y="231.26" type="curve" smooth="yes"/>
      <point x="157.02" y="278.74" type="line" smooth="yes"/>
      <point x="157.02" y="433.92"/>
      <point x="171.02" y="445.8"/>
      <point x="364.02" y="445.8" type="curve" smooth="yes"/>
      <point x="435.02" y="445.8"/>
      <point x="526.02" y="440.8"/>
      <point x="580.02" y="432.8" type="curve"/>
      <point x="580.02" y="503" type="line"/>
      <point x="527.46" y="512"/>
      <point x="438.5" y="518"/>
      <point x="361.7" y="518" type="curve" smooth="yes"/>
      <point x="112.66" y="518"/>
      <point x="69.1" y="479"/>
      <point x="69.1" y="259" type="curve" smooth="yes"/>
      <point x="69.1" y="251" type="line" smooth="yes"/>
      <point x="69.1" y="31"/>
      <point x="112.66" y="-8"/>
    </contour>
  </outline>
</glyph>
<glyph name="c.002" format="2">
  <advance width="629.36"/>
  <anchor x="312.86" y="0" name="bottom"/>
  <anchor x="312.86" y="510" name="top"/>
  <outline>
    <contour>
      <point x="363.5" y="-8" type="curve" smooth="yes"/>
      <point x="442.7" y="-8"/>
      <point x="534.06" y="-2"/>
      <point x="587.9" y="7" type="curve"/>
      <point x="587.9" y="77.2" type="line"/>
      <point x="532.58" y="69.22"/>
      <point x="438.86" y="64.2"/>
      <point x="365.38" y="64.2" type="curve" smooth="yes"/>
      <point x="171.14" y="64.2"/>
      <point x="157.02" y="76.08"/>
      <point x="157.02" y="231.26" type="curve" smooth="yes"/>
      <point x="157.02" y="278.74" type="line" smooth="yes"/>
      <point x="157.02" y="433.92"/>
      <point x="171.14" y="445.8"/>
      <point x="365.38" y="445.8" type="curve" smooth="yes"/>
      <point x="436.86" y="445.8"/>
      <point x="528.46" y="440.8"/>
      <point x="582.86" y="432.8" type="curve"/>
      <point x="582.86" y="503" type="line"/>
      <point x="530.06" y="512"/>
      <point x="440.7" y="518"/>
      <point x="363.5" y="518" type="curve" smooth="yes"/>
      <point x="112.94" y="518"/>
      <point x="69.1" y="479"/>
      <point x="69.1" y="259" type="curve" smooth="yes"/>
      <point x="69.1" y="251" type="line" smooth="yes"/>
      <point x="69.1" y="31"/>
      <point x="112.94" y="-8"/>
    </contour>
  </outline>
</glyph>
<glyph name="c.004" format="2">
  <advance width="628.16"/>
  <anchor x="312.86" y="0" name="bottom"/>
  <anchor x="312.86" y="510" name="top"/>
  <outline>
    <contour>
      <point x="362.9" y="-8" type="curve" smooth="yes"/>
      <point x="441.8" y="-8"/>
      <point x="532.98" y="-2"/>
      <point x="586.7" y="7" type="curve"/>
      <point x="586.7" y="77.2" type="line"/>
      <point x="531.54" y="69.22"/>
      <point x="438.08" y="64.2"/>
      <point x="364.78" y="64.2" type="curve" smooth="yes"/>
      <point x="171.08" y="64.2"/>
      <point x="157.02" y="76.08"/>
      <point x="157.02" y="231.26" type="curve" smooth="yes"/>
      <point x="157.02" y="278.74" type="line" smooth="yes"/>
      <point x="157.02" y="433.92"/>
      <point x="171.08" y="445.8"/>
      <point x="364.78" y="445.8" type="curve" smooth="yes"/>
      <point x="436.08" y="445.8"/>
      <point x="527.46" y="440.8"/>
      <point x="581.66" y="432.8" type="curve"/>
      <point x="581.66" y="503" type="line"/>
      <point x="528.98" y="512"/>
      <point x="439.88" y="518"/>
      <point x="362.9" y="518" type="curve" smooth="yes"/>
      <point x="112.82" y="518"/>
      <point x="69.1" y="479"/>
      <point x="69.1" y="259" type="curve" smooth="yes"/>
      <point x="69.1" y="251" type="line" smooth="yes"/>
      <point x="69.1" y="31"/>
      <point x="112.82" y="-8"/>
    </contour>
  </outline>
</glyph>
<glyph name="e.001" format="2">
  <advance width="737.84"/>
  <anchor x="367.92" y="0" name="bottom"/>
  <anchor x="679.92" y="10" name="ogonek"/>
  <anchor x="367.92" y="510" name="top"/>
  <outline>
    <contour>
      <point x="375.92" y="-8" type="curve" smooth="yes"/>
      <point x="477" y="-8"/>
      <point x="591.48" y="0"/>
      <point x="654.84" y="12" type="curve"/>
      <point x="654.84" y="82.2" type="line"/>
      <point x="581.04" y="71.2"/>
      <point x="466.8" y="64.2"/>
      <point x="378.88" y="64.2" type="curve" smooth="yes"/>
      <point x="181.12" y="64.2"/>
      <point x="157.92" y="76.06"/>
      <point x="157.92" y="231.2" type="curve" smooth="yes"/>
      <point x="157.92" y="278.8" type="line" smooth="yes"/>
      <point x="157.92" y="433.94"/>
      <point x="180.92" y="445.8"/>
      <point x="375.92" y="445.8" type="curve" smooth="yes"/>
      <point x="564.92" y="445.8"/>
      <point x="586.92" y="433.94"/>
      <point x="586.92" y="278.8" type="curve" smooth="yes"/>
      <point x="586.92" y="245.02" type="line"/>
      <point x="628.42" y="288.32" type="line"/>
      <point x="119.92" y="288.32" type="line"/>
      <point x="119.92" y="213.52" type="line"/>
      <point x="674.84" y="213.52" type="line"/>
      <point x="674.84" y="259" type="line" smooth="yes"/>
      <point x="674.84" y="479"/>
      <point x="629.96" y="518"/>
      <point x="375.92" y="518" type="curve" smooth="yes"/>
      <point x="116.88" y="518"/>
      <point x="70" y="479"/>
      <point x="70" y="259" type="curve" smooth="yes"/>
      <point x="70" y="251" type="line" smooth="yes"/>
      <point x="70" y="31"/>
      <point x="116.88" y="-8"/>
    </contour>
  </outline>
</glyph>
<glyph name="n.001" format="2">
  <advance width="761.26"/>
  <anchor x="379.6" y="0" name="bottom"/>
  <anchor x="379.6" y="510" name="top"/>
  <outline>
    <contour>
      <point x="82.68" y="0" type="line"/>
      <point x="170.6" y="0" type="line"/>
      <point x="170.6" y="263.84" type="line" smooth="yes"/>
      <point x="170.6" y="411.9"/>
      <point x="231.94" y="445.4"/>
      <point x="419.3" y="445.4" type="curve" smooth="yes"/>
      <point x="563.48" y="445.4"/>
      <point x="594.6" y="424.32"/>
      <point x="594.6" y="301.32" type="curve" smooth="yes"/>
      <point x="594.6" y="0" type="line"/>
      <point x="682.52" y="0" type="line"/>
      <point x="682.52" y="319" type="line" smooth="yes"/>
      <point x="682.52" y="466"/>
      <point x="620.72" y="518"/>
      <point x="444.16" y="518" type="curve" smooth="yes"/>
      <point x="295.84" y="518"/>
      <point x="211.92" y="493"/>
      <point x="174.6" y="437" type="curve"/>
      <point x="170.6" y="437" type="line"/>
      <point x="159.6" y="510" type="line"/>
      <point x="82.68" y="510" type="line"/>
    </contour>
  </outline>
</glyph>
<glyph name="s.001" format="2">
  <advance width="648.72"/>
  <anchor x="324.84" y="0" name="bottom"/>
  <anchor x="324.84" y="510" name="top"/>
  <outline>
    <contour>
      <point x="308.18" y="-8.04" type="curve" smooth="yes"/>
      <point x="529.52" y="-8.04"/>
      <point x="584.72" y="22.96"/>
      <point x="584.72" y="146.7" type="curve" smooth="yes"/>
      <point x="584.72" y="241.3"/>
      <point x="542.92" y="275.68"/>
      <point x="414.2" y="286.58" type="curve" smooth="yes"/>
      <point x="239.54" y="300.74" type="line" smooth="yes"/>
      <point x="165.28" y="306.6"/>
      <point x="151.92" y="317.8"/>
      <point x="151.92" y="370.64" type="curve" smooth="yes"/>
      <point x="151.92" y="436.12"/>
      <point x="179.06" y="446.88"/>
      <point x="337.22" y="446.88" type="curve" smooth="yes"/>
      <point x="406.58" y="446.88"/>
      <point x="492.12" y="441.78"/>
      <point x="553.6" y="433.66" type="curve"/>
      <point x="553.6" y="503.94" type="line"/>
      <point x="479.3" y="512.98"/>
      <point x="388.82" y="519.08"/>
      <point x="325.76" y="519.08" type="curve" smooth="yes"/>
      <point x="121.94" y="519.08"/>
      <point x="64" y="486.1"/>
      <point x="64" y="370.18" type="curve" smooth="yes"/>
      <point x="64" y="276.6"/>
      <point x="107.8" y="239.38"/>
      <point x="231.44" y="229.42" type="curve" smooth="yes"/>
      <point x="406.1" y="215.22" type="line" smooth="yes"/>
      <point x="486.22" y="208.42"/>
      <point x="496.8" y="200.08"/>
      <point x="496.8" y="146.34" type="curve" smooth="yes"/>
      <point x="496.8" y="76.9"/>
      <point x="468.68" y="64.16"/>
      <point x="311.24" y="64.16" type="curve" smooth="yes"/>
      <point x="234.92" y="64.16"/>
      <point x="140.4" y="69.26"/>
      <point x="71.04" y="77.38" type="curve"/>
      <point x="71.04" y="7.1" type="line"/>
      <point x="147.06" y="-1.94"/>
      <point x="242.3" y="-8.04"/>
    </contour>
  </outline>
</glyph>
<glyph name="s.002" format="2">
  <advance width="648.72"/>
  <anchor x="324.84" y="0" name="bottom"/>
  <anchor x="324.84" y="510" name="top"/>
  <outline>
    <contour>
      <point x="308.18" y="-8.04" type="curve" smooth="yes"/>
      <point x="529.52" y="-8.04"/>
      <point x="584.72" y="23.12"/>
      <point x="584.72" y="147.42" type="curve" smooth="yes"/>
      <point x="584.72" y="242.46"/>
      <point x="542.92" y="277"/>
      <point x="414.2" y="287.98" type="curve" smooth="yes"/>
      <point x="239.54" y="302.14" type="line" smooth="yes"/>
      <point x="165.28" y="307.96"/>
      <point x="151.92" y="318.96"/>
      <point x="151.92" y="371.36" type="curve" smooth="yes"/>
      <point x="151.92" y="436.24"/>
      <point x="179.06" y="446.88"/>
      <point x="337.22" y="446.88" type="curve" smooth="yes"/>
      <point x="406.58" y="446.88"/>
      <point x="492.12" y="441.78"/>
      <point x="553.6" y="433.66" type="curve"/>
      <point x="553.6" y="503.94" type="line"/>
      <point x="479.3" y="512.98"/>
      <point x="388.82" y="519.08"/>
      <point x="325.76" y="519.08" type="curve" smooth="yes"/>
      <point x="121.94" y="519.08"/>
      <point x="64" y="485.94"/>
      <point x="64" y="369.46" type="curve" smooth="yes"/>
      <point x="64" y="275.48"/>
      <point x="107.8" y="238.06"/>
      <point x="231.44" y="228.02" type="curve" smooth="yes"/>
      <point x="406.1" y="213.82" type="line" smooth="yes"/>
      <point x="486.22" y="207.06"/>
      <point x="496.8" y="198.92"/>
      <point x="496.8" y="145.62" type="curve" smooth="yes"/>
      <point x="496.8" y="76.78"/>
      <point x="468.68" y="64.16"/>
      <point x="311.24" y="64.16" type="curve" smooth="yes"/>
      <point x="234.92" y="64.16"/>
      <point x="140.4" y="69.26"/>
      <point x="71.04" y="77.38" type="curve"/>
      <point x="71.04" y="7.1" type="line"/>
      <point x="147.06" y="-1.94"/>
      <point x="242.3" y="-8.04"/>
    </contour>
  </outline>
</glyph>
<glyph name="v.001" format="2">
  <advance width="702.36"/>
  <anchor x="354.819" y="0" name="bottom"/>
  <anchor x="354.819" y="510" name="top"/>
  <outline>
    <contour>
      <point x="308.2" y="0" type="line"/>
      <point x="394.34" y="0" type="line"/>
      <point x="675.4" y="510" type="line"/>
      <point x="581.58" y="510" type="line"/>
      <point x="354.66" y="85" type="line"/>
      <point x="350.66" y="85" type="line"/>
      <point x="123.64" y="510" type="line"/>
      <point x="26.96" y="510" type="line"/>
    </contour>
  </outline>
</glyph>
